<?xml version="1.0" encoding="utf-8"?>
<!-- Generator: Adobe Illustrator 26.0.1, SVG Export Plug-In . SVG Version: 6.00 Build 0)  -->
<svg version="1.1" id="Layer_1" xmlns="http://www.w3.org/2000/svg" xmlns:xlink="http://www.w3.org/1999/xlink" x="0px" y="0px"
	 viewBox="0 0 1080 1080" style="enable-background:new 0 0 1080 1080;" xml:space="preserve">
<style type="text/css">
	.st0{fill:#272626;}
	.st1{fill:#E48B68;}
	.st2{fill:url(#SVGID_1_);}
	.st3{fill:url(#SVGID_00000001644644967457968080000006426015449307016332_);}
	.st4{fill:url(#SVGID_00000127755592030533216690000018056217415094219681_);}
	.st5{fill:url(#SVGID_00000048472582346629932730000003467997919760107675_);}
	.st6{fill:url(#SVGID_00000163751006628068246460000003026201523059950501_);}
	.st7{fill:url(#SVGID_00000018958542417016894830000001356621043354050730_);}
	.st8{fill:url(#SVGID_00000182487077533579667080000000086286529105476230_);}
	.st9{fill:url(#SVGID_00000123434980502131990980000008833753797293364145_);}
	.st10{fill:#EE9F7F;}
	.st11{fill:#EF4A74;}
	.st12{fill:#FFFFFF;}
</style>
<text transform="matrix(1 0 0 1 -443.6414 496.4227)" style="font-family:'Poppins-ExtraBold'; font-size:479.0072px;">U</text>
<polygon class="st0" points="-764.65,367.07 -635.93,235.89 -635.93,612.35 -536.28,612.35 -536.28,235.89 -407.57,367.07 
	-407.57,223.37 -586.11,41.57 -764.65,223.37 "/>
<g>
	<g id="Hand_x5F_9">
		<g>
			<g>
				<path class="st1" d="M658.48,792.8c0.03-6.5-0.99-13.19-0.96-19.68c-0.01-3.11-0.04-4.53,2.25-6.93
					c-2.99-4.52-5.3-8.34-5.32-14.57c-0.05-7.64,0.83-15.96-2.22-23.31c-1.36-2.64-3.64-6.65-6.33-8.39c0,0-0.01,0-0.01,0.01l0-0.02
					c-0.49-0.32-1-0.57-1.51-0.71c-0.93,5.48-0.98,10.56-2.18,15.99c-2.24,10.04-2.1,17.13,1.92,26.65
					c1.95,4.32,5.78,11.83,1.35,15.8c0.47,0.13,0.9,0.27,1.31,0.44c2.64-0.38,4.86-1.92,5.25-5.33c0,0,0.13-0.09,0.35-0.26
					c1.39,8.09,1.87,17.66,1.26,25.06c-0.02,1.69-1,4.33-0.2,5.9c1.23,2.9,3.37,4.03,5.72,4.05
					C656.13,804.51,658.47,796.86,658.48,792.8z M647.91,754.95c-3.19-9.98,0.32-19.3-1.27-29.58c-0.22-0.8-0.27-1.56-0.5-2.35
					l-0.04-0.44c5.11,10.65,1.83,21.88,2.51,32.88C648.4,755.3,648.16,755.13,647.91,754.95z M675.52,718.74l0.52,0.1
					c0.34-2.01,2.83-12.47-2.44-9.88C670.11,710.56,672.64,717.82,675.52,718.74z M690.44,780.15c-0.18-3.71-0.09-7.37-1.1-10.95
					c-0.24-1.74-1.91-4.6-1.93-6.02c0.23-1.37,1.81-2.77,1.74-3.91c-0.05,0.27,0.31-0.22,0.31-0.22
					c-6.55-0.95-5.78-19.74-6.25-24.92c-0.32-2.89,0.03-6.5-1.68-9.08c-4.32-6.18-9.39-0.07-10.79,5.04
					c-2.95,11.04,3.14,22.64,0.98,33.82c0.24,0.1,0.48,0.2,0.7,0.3l-0.08-0.28c0.16-0.97,0.3-1.95,0.4-2.94
					c0.58-5.43,0.34-11.07,0.1-16.38c-0.12-3.63-2.01-13.93,1.13-17l1.11-0.95c2.06,2.08,2.01,7.16,2.58,10.1
					c1.01,7.85-0.01,18.76,3.71,25.8c0.12,0.23,0.25,0.46,0.39,0.69l0.64,0.97c2.7,7.85-0.95,31.1,8.45,34.09
					c0.69,0.22,1.35,0.35,1.97,0.4C689.43,795.08,690.45,782.61,690.44,780.15z M706.38,681.61c4.08,2.87,3.25,7.12,4.95,11.78
					c2.78,8.15,0.35,16.19,3.3,23.42c4.34,10.65,11.05,20.5,18.77,20.89c0.94,0.05,1.79,0.04,2.57-0.01
					c-3.26-1.42-5.93-4.02-8.04-7.29c-2.92-5-9.22-17.74-4.09-22.81c-6.86,0.07-7.58-14.37-8.97-19.48
					c-2.2-7.11-7.84-13.12-8.37-20.59c-2.25,4.29-0.52,9.54-0.35,14.14L706.38,681.61z M612.78,718.63l0.05-0.27
					c-7.27-3.06-4.37-13.82-2.78-20.03c2.18-8.07,2.65-15.61,3-24.03c0.32-12.94,0.51-26.76,2.7-39.63
					c1.67-9.86,6.42-18.86,7.79-28.5c3.9-26.12,6.49-52.49,6.7-79.02c0.18-12.12,5.89-20.39,2.24-31.83
					c-0.97-2.95-1.71-12.7-3.66-19.01c-8.98,8.58-11.48,16.15-11.48,16.15c8.01,22,1.15,38.99,1.24,62.18
					c0.35,17.72,0.65,32.58,0.23,46.12c-0.18,12.12-4.69,22.86-7.77,34.72c-4.44,16.69-6.42,37.8-4.26,55.17l-0.08,1.02
					c-0.65,5.91-3.61,11.76-3.91,17.73c-0.24,5.61,3.19,10.77,5.39,15.71c2.52,5.18,5.68,10.87,7.16,15.85
					c0.27,0.92,1.02,1.66,1.99,2.18C617.25,735.72,608.99,723,612.78,718.63z M645.38,705.35c-5.47,1.61-0.61,11,2.26,13.05
					c0.32,0.25,0.66,0.31,1.15,0.59l0.14,0.22C649.23,716.44,650.13,703.79,645.38,705.35z M628.58,702c0,0,0.01,0,0.15,0.03
					c-0.36-3.29-1.77-12.7-4.43-8.56C622.39,696.31,625.57,701.81,628.58,702z M631.22,749.23c-0.3-4.58-2.56-8.68-3.02-13.85
					c-0.7-11.72,5.65-23.81-2.02-34.02c-14.23,9.48,1.97,26.38-3.98,37.69c-0.81,1.56-1.89,3.32-3.23,4.68
					c2.2,0.5,4.81,0.06,6.21-1.67l0.11-0.82c0.41,4.06,1.98,7.97,3.56,11.88c2.16,5.22,4.36,10.99,7.15,16.02l-0.05-0.37
					C633.08,762.02,631.62,756.37,631.22,749.23z M625.59,734.18l0.68-5.86c-0.6-3.88-1.91-7.71-4.46-10.64
					c0.82-3.8,1.08-11.67,3.49-14.23c0.55-0.09,0.32,0.25,0.46,0.46l0.36-0.1c-0.03,0.22-0.04,0.35-0.04,0.35
					c0.11,0.4,0.05,0.76,0.16,1.16c1.15,9.02,0.55,20.02-0.62,29.53L625.59,734.18z"/>
				
					<linearGradient id="SVGID_1_" gradientUnits="userSpaceOnUse" x1="348.4498" y1="633.6523" x2="239.9741" y2="555.685" gradientTransform="matrix(0.3293 0.9442 0.9442 -0.3293 50.1364 625.9897)">
					<stop  offset="0" style="stop-color:#FADBC9"/>
					<stop  offset="1" style="stop-color:#F6B292"/>
				</linearGradient>
				<path class="st2" d="M697.07,698.35c0.06-0.37,0.14-0.73,0.24-1.08c0.97-3.43,4-6.63,5.77-9.64c1.77-3.02-0.97-6.36-0.21-9.9
					c1.37-6.4,5.11-15.07,4.29-21.34c7.75,1.27,8.44,9.76,8.08,16.62c-0.13,2.48,0.27,5.09,1.11,7.58
					c1.58,4.68,3.97,8.06,4.75,13.04c0.34,2.19,0.55,5.23,1.79,7.11c1.31,1.98,3.47,2.87,4.7,4.99c2.93,5.08-2.35,10.63,0.55,15.87
					c-0.93-1.67,10.18-3.44,11.1-3.67c-1.58,0.4-3.53-14.99-3.99-16.44c-1.53-4.74-4.99-9.72-5.39-14.77
					c-0.36-4.6,1.85-9.18,2.76-13.58c1.02-4.92-1.9-9.35-3.71-13.59c-1.97-4.61-3.86-9.13-4.62-14.18
					c-1.14-7.52-12.49-21.61-19.18-25.13c-6.64-3.49-18.22-0.18-23.58,4.46c-11.24,9.74-15.84,28.89-12.36,43.3
					c1.88,7.8,3.39,14.28,7.93,21.43c3.64,5.72,7.65,11.32,7.03,18.67c-0.36,4.3-1.92,7.48-0.43,11.5c3.19,8.6,3.7,18.27,4.58,27.35
					c0.39,4.03,3.05,7.36,3.44,11.39c0.87,4.44,1.16,9.13,1.63,13.63c0.3,2.85-0.61,7.2,0.75,9.73c1.2,2.24,4.81,3.43,6.19,5.92
					c1.24-5.29,2.64-10.61,2.43-16.1c-0.3-8.08-2.99-15.76-3.5-23.74c-0.17-2.63,0.81-5.35,1.02-8.01c0.37-4.67-1.76-9.18-1.6-13.86
					c0.18-5.34,2.07-10.52,2-15.84C700.59,706.13,696.42,702.33,697.07,698.35z"/>
				
					<linearGradient id="SVGID_00000045603747507608049350000007545982418881255604_" gradientUnits="userSpaceOnUse" x1="349.1634" y1="558.7454" x2="329.1974" y2="520.144" gradientTransform="matrix(0.3293 0.9442 0.9442 -0.3293 50.1364 625.9897)">
					<stop  offset="0" style="stop-color:#FADBC9"/>
					<stop  offset="1" style="stop-color:#F6B292"/>
				</linearGradient>
				<path style="fill:url(#SVGID_00000045603747507608049350000007545982418881255604_);" d="M665.36,799.74
					c1.43-3.69-2.05-6.89-4.38-9.02c-0.44-3.76-1.04-8.11-0.91-12.04c0.13-3.93,1.96-8.39,1.57-12.42c-0.1-2.56-1.22-3.9-2.19-6.07
					c-2.38-4.97-2.63-9.82-2.01-15.08c0.5-6.12,5.18-16.27,9.94-6.33c2.17,4.65,2.84,10.15,2.48,15.45
					c-0.25,3.06-1.78,7.3-1.51,10.46c0.18,3.71,2.79,7.31,2.92,11.29c0.31,7.69-0.68,18.25-5.01,24.78L665.36,799.74z"/>
				
					<linearGradient id="SVGID_00000036932371136838062270000016147617465719561897_" gradientUnits="userSpaceOnUse" x1="311.0543" y1="541.1519" x2="299.9481" y2="507.1799" gradientTransform="matrix(0.3293 0.9442 0.9442 -0.3293 50.1364 625.9897)">
					<stop  offset="0" style="stop-color:#FADBC9"/>
					<stop  offset="1" style="stop-color:#F6B292"/>
				</linearGradient>
				<path style="fill:url(#SVGID_00000036932371136838062270000016147617465719561897_);" d="M642.72,766.94
					c-1.2-5.6-3.84-10.62-4.52-16.11c-1.06-6.42,0.1-13.27,1.17-19.57c0.6-3.56,2.6-15.34-2.25-16.82
					c-4.07-1.33-5.63,6.29-6.05,8.76c-1.28,5.98-1.86,10.96,0.43,16.47c1.95,4.32,3.5,6.31,2.97,11.01
					c-0.95,7.17,3.49,11.11,3.62,18.21c2.1-1.3,4.61-0.26,6.6,0.68L642.72,766.94z"/>
				
					<linearGradient id="SVGID_00000147180406946202125170000007728489889481098152_" gradientUnits="userSpaceOnUse" x1="279.8602" y1="526.9791" x2="271.9806" y2="496.1178" gradientTransform="matrix(0.3293 0.9442 0.9442 -0.3293 50.1364 625.9897)">
					<stop  offset="0" style="stop-color:#FADBC9"/>
					<stop  offset="1" style="stop-color:#F6B292"/>
				</linearGradient>
				<path style="fill:url(#SVGID_00000147180406946202125170000007728489889481098152_);" d="M619.85,735.51
					c2.28-5.51-1.05-11.22-2.3-16.54c-0.53-3.21-0.68-5.5-0.17-8.51c0.33-1.92,3-8.2,2.41-9.44c-2-4.05-7.97,1.05-8.43,3.79
					c-0.74,4.38,3.43,8.28,3.87,12.03c0.27,3.16-1.45,5.38-0.92,8.59c0.24,1.74,1.48,3.95,2.24,5.79c1.02,1.89,1.95,4.32,2.41,6.39
					L619.85,735.51z"/>
				
					<linearGradient id="SVGID_00000028320785156270576190000000662841391442117765_" gradientUnits="userSpaceOnUse" x1="275.0674" y1="548.0359" x2="281.1214" y2="537.5422" gradientTransform="matrix(0.3293 0.9442 0.9442 -0.3293 50.1364 625.9897)">
					<stop  offset="0" style="stop-color:#FADBC9"/>
					<stop  offset="1" style="stop-color:#F6B292"/>
				</linearGradient>
				<path style="fill:url(#SVGID_00000028320785156270576190000000662841391442117765_);" d="M652.54,720.17
					c-0.78-0.15-2.04-0.67-2.77-1.08l0,0c1.43-3.69,1.7-8.44-0.04-12.44c1.3,0.24,2.7-0.06,3.74,0.14L652.54,720.17z"/>
				
					<linearGradient id="SVGID_00000077322407479235424030000005228383917812747409_" gradientUnits="userSpaceOnUse" x1="254.8288" y1="531.8206" x2="259.5333" y2="523.6661" gradientTransform="matrix(0.3293 0.9442 0.9442 -0.3293 50.1364 625.9897)">
					<stop  offset="0" style="stop-color:#FADBC9"/>
					<stop  offset="1" style="stop-color:#F6B292"/>
				</linearGradient>
				<path style="fill:url(#SVGID_00000077322407479235424030000005228383917812747409_);" d="M632.34,703.09
					c-0.83,0.13-1.78-0.62-2.56-0.76c-0.01-3.11-0.02-6.22-1.12-9.25c1.56,0.29,2.91,0.26,4.3-0.04L632.34,703.09z"/>
				
					<linearGradient id="SVGID_00000029040976311364085050000015163998239524082340_" gradientUnits="userSpaceOnUse" x1="247.2524" y1="516.5279" x2="250.1466" y2="511.5114" gradientTransform="matrix(0.3293 0.9442 0.9442 -0.3293 50.1364 625.9897)">
					<stop  offset="0" style="stop-color:#FADBC9"/>
					<stop  offset="1" style="stop-color:#F6B292"/>
				</linearGradient>
				<path style="fill:url(#SVGID_00000029040976311364085050000015163998239524082340_);" d="M616.99,695.4
					c-0.83,0.13-1.82-0.34-2.65-0.22c-0.03-1.42,0.25-3.06,0.74-4.38c0.99,0.47,1.92-0.21,2.7-0.06L616.99,695.4z"/>
				
					<linearGradient id="SVGID_00000142166602867225476550000015223897603946167987_" gradientUnits="userSpaceOnUse" x1="288.5193" y1="569.5355" x2="291.8607" y2="563.7438" gradientTransform="matrix(0.3293 0.9442 0.9442 -0.3293 50.1364 625.9897)">
					<stop  offset="0" style="stop-color:#FADBC9"/>
					<stop  offset="1" style="stop-color:#F6B292"/>
				</linearGradient>
				<path style="fill:url(#SVGID_00000142166602867225476550000015223897603946167987_);" d="M679.81,719.36
					c-0.52-0.1-1.42-1.12-1.94-1.21c-0.2-2.02-0.04-4.53,0.34-6.72c0.52,0.1,1.61,0.02,1.87,0.07L679.81,719.36z"/>
				<path class="st10" d="M727.26,735.39c-5.85-4.91-8.43-14.9-9.92-22.13c-0.92-4.24-1.83-8.48-2.83-12.55
					c-0.84-3.99-3.02-7.24-4.34-11.07c0.02,0.22,0.03,0.44,0.05,0.66c0.38,1.03,0.74,2.06,1.11,3.08c2.78,8.15,0.35,16.19,3.3,23.42
					C717.77,724.52,722.15,731.8,727.26,735.39z M655.91,783.65c-0.09-4.73-0.3-9.86-0.97-14.32c-0.85-4.49-2.97-8.85-4.03-13.19
					c-0.94-3.95-1.19-7.76-1.61-11.61c-0.36,1.57-0.59,3.07-0.72,4.53c-0.06,1.77-0.08,3.54-0.01,5.31
					c0.36,4.62,1.58,9.02,2.76,14.1c0.47,1.92,0.51,3.96,0.28,6.05c0.2-0.53,0.35-1.11,0.43-1.78c0,0,0.13-0.09,0.35-0.26
					c1.39,8.09,1.87,17.66,1.26,25.06c-0.02,1.69-1,4.33-0.2,5.9c0.51,1.21,1.19,2.11,1.97,2.76c-0.84-3.37,0.32-7.41,0.45-10.69
					C656.17,791.61,656.16,787.46,655.91,783.65z M681.37,762.56c0.12,0.23,0.25,0.46,0.39,0.69l0.64,0.97
					c2.54,7.4-0.54,28.47,6.95,33.38c-2.43-3.58-3.04-8.23-3.16-12.54c-0.15-5.34,0.11-10.38-0.68-15.69
					c-0.47-3.17-1.27-6.99-2.66-9.77c-1.58-3.16-2.57-6.45-2.71-10.03c-0.2-6.9,1.04-14.57-3.58-19.9c0.61,2.32,0.72,5.17,1.1,7.09
					C678.67,744.61,677.64,755.52,681.37,762.56z M609.62,718.79c-4.57-0.48-4.04-6.79-3.83-10.14c0.61-7.8,3.82-15.11,3.56-23.07
					c-0.14-8.69-1.38-17.22-0.41-26.08c0.84-8.13,2.1-16.57,4.15-24.47c2.03-7.72,4.37-15.2,6.05-22.98
					c2.19-9.76,2.56-19.3,2.47-29.31c0.11-10.15,0.57-20.24-0.22-30.38c-0.61-7.87,0.28-15.73-0.13-23.58
					c-0.4-7.81,9.94-10.28,7.74-17.79c-1.5-5.12-3.5-10.07-5.08-15.16c-1.15-3.69-1.72-7.46-2.25-11.24
					c-3.26,4.65-4.33,7.89-4.33,7.89c8.01,22,1.15,38.99,1.24,62.18c0.35,17.72,0.65,32.58,0.23,46.12
					c-0.18,12.12-4.69,22.86-7.77,34.72c-4.44,16.69-6.42,37.8-4.26,55.17l-0.08,1.02c-0.65,5.91-3.61,11.76-3.91,17.73
					c-0.24,5.61,3.19,10.77,5.39,15.71c0.93,1.92,1.95,3.9,2.94,5.89C609.65,726.92,607.68,721.32,609.62,718.79z"/>
			</g>
			<path class="st11" d="M652.15,463.17c-33.46,8.5-34.81,29.3-34.81,29.3c8.01,22,1.15,38.99,1.24,62.18
				c0.35,17.72,0.65,32.58,0.23,46.12c-0.18,12.12-4.69,22.86-7.77,34.72c-4.44,16.69-6.42,37.8-4.26,55.17l-0.08,1.02
				c-0.65,5.91-3.61,11.76-3.91,17.73c-0.24,5.61,3.19,10.77,5.39,15.71c2.52,5.18,5.68,10.87,7.16,15.85
				c0.94,3.15,7.34,4.21,9.84,1.1l0.11-0.82c0.41,4.06,1.98,7.97,3.56,11.88c2.54,6.13,5.13,13.02,8.66,18.59l0.02-0.18l0.13,0.4
				c0.55,1.22,0.91,2.79,1.63,4.05l0.01,0.02c0,0,0,0,0.01,0c0.13,0.22,0.27,0.44,0.42,0.64l-0.03,0.18
				c4.29,2.13,11.6,2.37,12.33-4.09c0,0,0.13-0.09,0.35-0.26c1.39,8.09,1.87,17.66,1.26,25.06c-0.02,1.69-1,4.33-0.2,5.9
				c3.26,7.68,12.92,2.99,15.93-2.09c4.61-8.18,5.37-22.17,4.26-31.42l-0.95-4.7l-0.36-1.29c0.16-0.97,0.3-1.95,0.4-2.94
				c0.58-5.43,0.34-11.07,0.1-16.38c-0.12-3.63-2.01-13.93,1.13-17l1.11-0.95c2.06,2.08,2.01,7.16,2.58,10.1
				c1.01,7.85-0.01,18.76,3.71,25.8c0.12,0.23,0.25,0.46,0.39,0.69l0.64,0.97c2.7,7.85-0.95,31.1,8.45,34.09
				c17.33,5.52,14.68-42.18,11.51-50.41l0.09-0.55c0.93-5.48,1.29-10.78,0.31-16.05c-1.06-6.42,0.39-11.8,0.73-18.52
				c0.36-5.3-3.05-9.54-1.86-14.97c1.05-4.61,0.42-6.97,2.38-11.06c0.86-1.65,1.43-3.32,1.82-5.02l0.55-0.12
				c4.08,2.87,3.25,7.12,4.95,11.78c2.78,8.15,0.35,16.19,3.3,23.42c4.34,10.65,11.05,20.5,18.77,20.89
				c13.67,0.7,10.95-9.54,7.87-19.52c-2.15-7.82-1.94-15.61-4.25-23.1c-1.23-4.82-1.77-9.01-2.05-14.16l-0.29-1.25
				c0.15-4.6,2.31-9.07,2.11-13.55c-0.44-4.61-2.78-8.36-4.28-12.6l-0.46-1.5c-0.43-6.47-8.43-18.29-12.37-23.55
				c-5.01-6.88-13.32-18.05-21.28-21.81l-0.64-0.97c-3.34-8.83-2.52-19.98-1.72-29.44c1.56-23.45-0.85-48.02-1.76-71.85
				c-0.36-11.49,0.1-26.72-1.35-39.83C692.92,464.6,685.61,454.66,652.15,463.17z M645.89,719.92l-0.01-0.18
				c0.06,0.03,0.12,0.06,0.18,0.09C646,719.86,645.94,719.89,645.89,719.92z M648.62,755.46c-0.22-0.16-0.46-0.33-0.71-0.51
				c-3.19-9.98,0.32-19.3-1.27-29.58c-0.22-0.8-0.27-1.56-0.5-2.35l-0.04-0.44C651.22,733.23,647.94,744.46,648.62,755.46z
				 M625.75,703.92l0.36-0.1c-0.03,0.22-0.04,0.35-0.04,0.35c0.11,0.4,0.05,0.76,0.16,1.16c1.15,9.02,0.55,20.02-0.62,29.53
				l-0.03-0.68l0.68-5.86c-0.6-3.88-1.91-7.71-4.46-10.64c0.82-3.8,1.08-11.67,3.49-14.23C625.84,703.37,625.61,703.7,625.75,703.92
				z"/>
		</g>
	</g>
	<path class="st11" d="M610.5,375.58c0,0,2.01,9.23,5.83,95.88c0.58,13.04-1.42,18.24,1.71,68.33c0.69,11.01,0.52,33.91,0.78,37.96
		l76.16,1.07c0,0,0.7-37.07,0.81-74.25c0.12-41.08,0.51-64.56,1.29-77.87l2.74-51.26L610.5,375.58z"/>
	<path class="st11" d="M419.53,327.77v195.91c0,0-9.68,141.52,142.74,145.14l31.9-95.78c0,0-36.92,22.36-68.55-7.21
		c0,0-13.32-11.3-12.69-42.15V327.77H419.53z"/>
	<polyline class="st11" points="427.34,388.84 370.71,433.28 370.71,337.4 466.35,262.35 559.35,339.36 559.24,434.91 
		504.59,389.15 	"/>
</g>
<path class="st12" d="M1180.48,271.09c0,0-28.17,137.22-18.26,202.43c10.63,69.94,11.16,70.15-30.78-96L1180.48,271.09z"/>
</svg>
